<?xml version="1.0" standalone="no"?>
<!DOCTYPE svg PUBLIC "-//W3C//DTD SVG 20010904//EN"
 "http://www.w3.org/TR/2001/REC-SVG-20010904/DTD/svg10.dtd">
<svg version="1.0" xmlns="http://www.w3.org/2000/svg"
 width="443.000000pt" height="348.000000pt" viewBox="0 0 443.000000 348.000000"
 preserveAspectRatio="xMidYMid meet">
<metadata>
Created by potrace 1.16, written by Peter Selinger 2001-2019
</metadata>
<g transform="translate(0.000000,348.000000) scale(0.100000,-0.100000)"
fill="#ffffff" stroke="none">
<path d="M1675 3124 c-336 -51 -584 -167 -813 -380 -200 -185 -345 -436 -413
-714 -21 -85 -24 -118 -24 -315 0 -205 2 -227 27 -325 95 -378 300 -666 621
-875 133 -86 326 -164 487 -195 257 -51 588 -16 832 88 279 120 523 335 673
595 25 45 26 47 7 47 -13 0 -29 -16 -48 -47 -161 -277 -446 -505 -760 -608
-260 -85 -599 -85 -859 0 -346 114 -640 365 -806 691 -94 186 -138 359 -146
584 -8 237 30 423 128 629 73 154 150 262 274 387 523 525 1345 551 1900 60
83 -73 197 -209 256 -304 28 -45 51 -72 62 -72 17 0 17 2 1 33 -56 108 -194
280 -300 372 -189 164 -392 267 -649 326 -88 20 -373 34 -450 23z"/>
<path d="M3028 2258 c-57 -14 -88 -26 -88 -35 0 -7 7 -13 15 -13 31 0 35 -39
35 -335 l0 -296 -25 -23 c-14 -13 -25 -26 -25 -30 0 -3 56 -6 125 -6 116 0
155 9 104 25 -11 4 -24 18 -30 32 -11 29 -12 203 -1 203 4 0 50 -58 101 -130
l94 -130 94 0 c-51 0 93 3 93 8 0 4 -13 15 -30 24 -27 16 -230 277 -230 296 0
19 149 150 184 163 20 7 36 17 36 21 0 4 -38 8 -85 8 -78 0 -107 -10 -70 -24
8 -3 15 -12 15 -20 0 -16 -186 -196 -203 -196 -6 0 -9 79 -6 237 3 152 0 237
-6 239 -5 1 -49 -7 -97 -18z"/>
<path d="M1720 2114 c-19 -8 -47 -26 -61 -40 -27 -25 -27 -25 -60 -8 -22 11
-56 18 -94 18 -76 0 -136 -31 -180 -92 -27 -40 -30 -51 -30 -121 0 -57 5 -84
18 -104 l17 -27 475 0 475 0 0 43 c-1 77 -56 161 -123 186 -16 6 -54 11 -86
11 -55 0 -59 2 -71 30 -40 97 -178 148 -280 104z"/>
<path d="M2639 2050 c-56 -10 -96 -30 -129 -64 -19 -21 -25 -40 -28 -91 -4
-64 -4 -65 34 -103 28 -28 65 -49 127 -72 97 -36 120 -59 115 -111 -4 -45 -44
-72 -103 -71 -59 0 -87 20 -122 84 -41 76 -53 74 -53 -9 l0 -69 48 -17 c29
-11 77 -17 127 -17 161 0 245 77 221 205 -11 56 -62 99 -155 130 -122 40 -151
71 -125 133 15 38 66 55 119 41 27 -8 40 -20 62 -62 15
-28 36 -53 46 -55 15
-3 17 5 17 56 l0 60 -42 16 c-59 20 -105 25 -159 16z"/>
<path d="M3770 2053 c-107 -11 -180 -63 -180 -128 0 -36 28 -65 63 -65 28 0
63 42 70 86 9 57 27 77 68 76 54 -1 69 -29 69 -126 l0 -82 -74 -13 c-143 -24
-220 -83 -218 -167 1 -78 54 -124 143 -124 48 0 64 5 105 33 l49 34 31 -34
c27 -28 38 -33 79 -33 49 0 105 25 105 47 0 7 -11 13 -24 13 -13 0 -28 6 -34
13 -5 6 -12 86 -14 177 -4 138 -8 172 -24 205 -31 64 -115 98 -214 88z m88
-355 c-3 -91 -3 -92 -34 -110 -93 -54 -165 63 -91 147 20 24 83 53 115 55 10
0 12 -22 10 -92z"/>
<path d="M2472 1388 l3 -33 805 0 805 0 3 33 3 32 -811 0 -811 0 3 -32z"/>
</g>
</svg>
